<svg width="72" height="22" viewBox="0 0 72 22" fill="none" xmlns="http://www.w3.org/2000/svg">
<g style="mix-blend-mode:multiply">
<rect width="72" height="22" rx="11" fill="#ECFDF3"/>
<path d="M9.83469 15H8.43697L11.5776 6.27273H13.0989L16.2395 15H14.8418L12.3745 7.85795H12.3063L9.83469 15ZM10.0691 11.5824H14.6032V12.6903H10.0691V11.5824ZM17.3975 17.4545V8.45455H18.6419V9.51562H18.7484C18.8223 9.37926 18.9288 9.22159 19.068 9.04261C19.2072 8.86364 19.4004 8.70739 19.6475 8.57386C19.8947 8.4375 20.2214 8.36932 20.6277 8.36932C21.1561 8.36932 21.6277 8.50284 22.0424 8.76989C22.4572 9.03693 22.7825 9.42187 23.0183 9.92472C23.2569 10.4276 23.3762 11.0327 23.3762 11.7401C23.3762 12.4474 23.2583 13.054 23.0226 13.5597C22.7868 14.0625 22.4629 14.4503 22.051 14.723C21.639 14.9929 21.1689 15.1278 20.6404 15.1278C20.2427 15.1278 19.9174 15.0611 19.6646 14.9276C19.4146 14.794 19.2186 14.6378 19.0765 14.4588C18.9345 14.2798 18.8251 14.1207 18.7484 13.9815H18.6717V17.4545H17.3975ZM18.6461 11.7273C18.6461 12.1875 18.7129 12.5909 18.8464 12.9375C18.9799 13.2841 19.1731 13.5554 19.426 13.7514C19.6788 13.9446 19.9885 14.0412 20.3549 14.0412C20.7356 14.0412 21.0538 13.9403 21.3095 13.7386C21.5652 13.5341 21.7583 13.2571 21.889 12.9077C22.0225 12.5582 22.0893 12.1648 22.0893 11.7273C22.0893 11.2955 22.024 10.9077 21.8933 10.5639C21.7654 10.2202 21.5723 9.94886 21.3137 9.75C21.0581 9.55114 20.7385 9.4517 20.3549 9.4517C19.9856 9.4517 19.6731 9.54687 19.4174 9.73722C19.1646 9.92756 18.9728 10.1932 18.8422 10.5341C18.7115 10.875 18.6461 11.2727 18.6461 11.7273ZM24.8038 17.4545V8.45455H26.0481V9.51562H26.1547C26.2285 9.37926 26.335 9.22159 26.4743 9.04261C26.6135 8.86364 26.8066 8.70739 27.0538 8.57386C27.301 8.4375 27.6277 8.36932 28.0339 8.36932C28.5623 8.36932 29.0339 8.50284 29.4487 8.76989C29.8635 9.03693 30.1887 9.42187 30.4245 9.92472C30.6632 10.4276 30.7825 11.0327 30.7825 11.7401C30.7825 12.4474 30.6646 13.054 30.4288 13.5597C30.193 14.0625 29.8691 14.4503 29.4572 14.723C29.0453 14.9929 28.5751 15.1278 28.0467 15.1278C27.649 15.1278 27.3237 15.0611 27.0708 14.9276C26.8208 14.794 26.6248 14.6378 26.4828 14.4588C26.3407 14.2798 26.2314 14.1207 26.1547 13.9815H26.0779V17.4545H24.8038ZM26.0524 11.7273C26.0524 12.1875 26.1191 12.5909 26.2527 12.9375C26.3862 13.2841 26.5794 13.5554 26.8322 13.7514C27.085 13.9446 27.3947 14.0412 27.7612 14.0412C28.1419 14.0412 28.46 13.9403 28.7157 13.7386C28.9714 13.5341 29.1646 13.2571 29.2953 12.9077C29.4288 12.5582 29.4956 12.1648 29.4956 11.7273C29.4956 11.2955 29.4302 10.9077 29.2995 10.5639C29.1717 10.2202 28.9785 9.94886 28.72 9.75C28.4643 9.55114 28.1447 9.4517 27.7612 9.4517C27.3919 9.4517 27.0794 9.54687 26.8237 9.73722C26.5708 9.92756 26.3791 10.1932 26.2484 10.5341C26.1177 10.875 26.0524 11.2727 26.0524 11.7273ZM32.21 15V8.45455H33.4416V9.49432H33.5098C33.6291 9.14205 33.8393 8.86506 34.1404 8.66335C34.4444 8.45881 34.7882 8.35653 35.1717 8.35653C35.2512 8.35653 35.345 8.35937 35.4529 8.36506C35.5637 8.37074 35.6504 8.37784 35.7129 8.38636V9.60511C35.6618 9.59091 35.5708 9.57528 35.4402 9.55824C35.3095 9.53835 35.1788 9.52841 35.0481 9.52841C34.747 9.52841 34.4785 9.59233 34.2427 9.72017C34.0098 9.84517 33.8251 10.0199 33.6887 10.2443C33.5524 10.4659 33.4842 10.7187 33.4842 11.0028V15H32.21ZM39.3382 15.1321C38.7246 15.1321 38.1891 14.9915 37.7317 14.7102C37.2743 14.429 36.9192 14.0355 36.6664 13.5298C36.4135 13.0241 36.2871 12.4332 36.2871 11.7571C36.2871 11.0781 36.4135 10.4844 36.6664 9.97585C36.9192 9.46733 37.2743 9.07244 37.7317 8.79119C38.1891 8.50994 38.7246 8.36932 39.3382 8.36932C39.9519 8.36932 40.4874 8.50994 40.9448 8.79119C41.4022 9.07244 41.7573 9.46733 42.0101 9.97585C42.263 10.4844 42.3894 11.0781 42.3894 11.7571C42.3894 12.4332 42.263 13.0241 42.0101 13.5298C41.7573 14.0355 41.4022 14.429 40.9448 14.7102C40.4874 14.9915 39.9519 15.1321 39.3382 15.1321ZM39.3425 14.0625C39.7402 14.0625 40.0698 13.9574 40.3311 13.7472C40.5925 13.5369 40.7857 13.2571 40.9107 12.9077C41.0385 12.5582 41.1025 12.1733 41.1025 11.7528C41.1025 11.3352 41.0385 10.9517 40.9107 10.6023C40.7857 10.25 40.5925 9.96733 40.3311 9.75426C40.0698 9.54119 39.7402 9.43466 39.3425 9.43466C38.9419 9.43466 38.6096 9.54119 38.3453 9.75426C38.084 9.96733 37.8894 10.25 37.7615 10.6023C37.6365 10.9517 37.574 11.3352 37.574 11.7528C37.574 12.1733 37.6365 12.5582 37.7615 12.9077C37.8894 13.2571 38.084 13.5369 38.3453 13.7472C38.6096 13.9574 38.9419 14.0625 39.3425 14.0625ZM49.1884 8.45455L46.8148 15H45.4512L43.0733 8.45455H44.4412L46.0989 13.4915H46.1671L47.8205 8.45455H49.1884ZM52.9842 15.1321C52.3393 15.1321 51.7839 14.9943 51.318 14.7188C50.8549 14.4403 50.497 14.0497 50.2441 13.5469C49.9941 13.0412 49.8691 12.4489 49.8691 11.7699C49.8691 11.0994 49.9941 10.5085 50.2441 9.99716C50.497 9.4858 50.8493 9.08665 51.301 8.79972C51.7555 8.51278 52.2868 8.36932 52.8947 8.36932C53.264 8.36932 53.622 8.4304 53.9686 8.55256C54.3152 8.67472 54.6262 8.86648 54.9018 9.12784C55.1774 9.3892 55.3947 9.72869 55.5538 10.1463C55.7129 10.5611 55.7924 11.0653 55.7924 11.6591V12.1108H50.5893V11.1562H54.5439C54.5439 10.821 54.4757 10.5241 54.3393 10.2656C54.2029 10.0043 54.0112 9.7983 53.764 9.64773C53.5197 9.49716 53.2328 9.42188 52.9032 9.42188C52.5453 9.42188 52.2328 9.50994 51.9657 9.68608C51.7015 9.85937 51.497 10.0866 51.3521 10.3679C51.21 10.6463 51.139 10.9489 51.139 11.2756V12.0213C51.139 12.4588 51.2157 12.831 51.3691 13.1378C51.5254 13.4446 51.7427 13.679 52.0211 13.8409C52.2995 14 52.6248 14.0795 52.997 14.0795C53.2385 14.0795 53.4586 14.0455 53.6575 13.9773C53.8564 13.9062 54.0282 13.8011 54.1731 13.6619C54.318 13.5227 54.4288 13.3509 54.5055 13.1463L55.7115 13.3636C55.6149 13.7187 55.4416 14.0298 55.1916 14.2969C54.9444 14.5611 54.6333 14.767 54.2583 14.9148C53.8862 15.0597 53.4615 15.1321 52.9842 15.1321ZM59.6564 15.1278C59.128 15.1278 58.6564 14.9929 58.2417 14.723C57.8297 14.4503 57.5059 14.0625 57.2701 13.5597C57.0371 13.054 56.9206 12.4474 56.9206 11.7401C56.9206 11.0327 57.0385 10.4276 57.2743 9.92472C57.513 9.42187 57.8397 9.03693 58.2544 8.76989C58.6692 8.50284 59.1394 8.36932 59.665 8.36932C60.0712 8.36932 60.3979 8.4375 60.6451 8.57386C60.8951 8.70739 61.0882 8.86364 61.2246 9.04261C61.3638 9.22159 61.4718 9.37926 61.5485 9.51562H61.6252V6.27273H62.8993V15H61.655V13.9815H61.5485C61.4718 14.1207 61.361 14.2798 61.2161 14.4588C61.074 14.6378 60.878 14.794 60.628 14.9276C60.378 15.0611 60.0542 15.1278 59.6564 15.1278ZM59.9377 14.0412C60.3042 14.0412 60.6138 13.9446 60.8667 13.7514C61.1223 13.5554 61.3155 13.2841 61.4462 12.9375C61.5797 12.5909 61.6465 12.1875 61.6465 11.7273C61.6465 11.2727 61.5811 10.875 61.4505 10.5341C61.3198 10.1932 61.128 9.92756 60.8752 9.73722C60.6223 9.54687 60.3098 9.4517 59.9377 9.4517C59.5542 9.4517 59.2346 9.55114 58.9789 9.75C58.7232 9.94886 58.53 10.2202 58.3993 10.5639C58.2715 10.9077 58.2076 11.2955 58.2076 11.7273C58.2076 12.1648 58.2729 12.5582 58.4036 12.9077C58.5343 13.2571 58.7275 13.5341 58.9831 13.7386C59.2417 13.9403 59.5598 14.0412 59.9377 14.0412Z" fill="#027A48"/>
</g>
</svg>
