<svg width="32" height="22" viewBox="0 0 32 22" fill="none" xmlns="http://www.w3.org/2000/svg">
<g style="mix-blend-mode:multiply">
<rect width="32" height="22" rx="11" fill="#EFF8FF"/>
<path d="M16.4086 9.1108H15.079C15.0279 8.8267 14.9327 8.5767 14.7935 8.3608C14.6543 8.14489 14.4838 7.96165 14.2821 7.81108C14.0804 7.66051 13.8546 7.54687 13.6046 7.47017C13.3574 7.39347 13.0946 7.35511 12.8162 7.35511C12.3134 7.35511 11.8631 7.48153 11.4654 7.73438C11.0705 7.98722 10.758 8.35795 10.5279 8.84659C10.3006 9.33523 10.187 9.93182 10.187 10.6364C10.187 11.3466 10.3006 11.946 10.5279 12.4347C10.758 12.9233 11.0719 13.2926 11.4696 13.5426C11.8674 13.7926 12.3148 13.9176 12.812 13.9176C13.0875 13.9176 13.3489 13.8807 13.5961 13.8068C13.8461 13.7301 14.0719 13.6179 14.2736 13.4702C14.4753 13.3224 14.6458 13.142 14.785 12.929C14.927 12.7131 15.025 12.4659 15.079 12.1875L16.4086 12.1918C16.3375 12.6207 16.1998 13.0156 15.9952 13.3764C15.7935 13.7344 15.5336 14.044 15.2154 14.3054C14.9 14.5639 14.5392 14.7642 14.133 14.9062C13.7267 15.0483 13.2836 15.1193 12.8034 15.1193C12.0478 15.1193 11.3745 14.9403 10.7836 14.5824C10.1926 14.2216 9.72674 13.706 9.38583 13.0355C9.04776 12.3651 8.87873 11.5653 8.87873 10.6364C8.87873 9.70455 9.04918 8.90483 9.39009 8.23722C9.731 7.56676 10.1969 7.05256 10.7878 6.6946C11.3787 6.33381 12.0506 6.15341 12.8034 6.15341C13.2665 6.15341 13.6983 6.22017 14.0989 6.35369C14.5023 6.48437 14.8645 6.67756 15.1855 6.93324C15.5066 7.18608 15.7722 7.49574 15.9824 7.86222C16.1926 8.22585 16.3347 8.64205 16.4086 9.1108ZM17.9842 15V6.27273H19.301V13.8665H23.2555V15H17.9842Z" fill="#175CD3"/>
</g>
</svg>
