<svg width="63" height="22" viewBox="0 0 63 22" fill="none" xmlns="http://www.w3.org/2000/svg">
<g style="mix-blend-mode:multiply">
<rect width="63" height="22" rx="11" fill="#FFF6ED"/>
<path d="M9.01545 15V6.27273H12.1262C12.8052 6.27273 13.3677 6.39631 13.8137 6.64347C14.2598 6.89062 14.5936 7.22869 14.8152 7.65767C15.0368 8.08381 15.1476 8.56392 15.1476 9.09801C15.1476 9.63494 15.0353 10.1179 14.8109 10.5469C14.5893 10.973 14.2541 11.3111 13.8052 11.5611C13.3592 11.8082 12.7981 11.9318 12.122 11.9318H9.98278V10.8153H12.0027C12.4316 10.8153 12.7797 10.7415 13.0467 10.5938C13.3137 10.4432 13.5098 10.2386 13.6348 9.98011C13.7598 9.72159 13.8223 9.42756 13.8223 9.09801C13.8223 8.76847 13.7598 8.47585 13.6348 8.22017C13.5098 7.96449 13.3123 7.7642 13.0424 7.61932C12.7754 7.47443 12.4231 7.40199 11.9856 7.40199H10.3322V15H9.01545ZM19.3279 15.1321C18.6831 15.1321 18.1277 14.9943 17.6618 14.7188C17.1987 14.4403 16.8407 14.0497 16.5879 13.5469C16.3379 13.0412 16.2129 12.4489 16.2129 11.7699C16.2129 11.0994 16.3379 10.5085 16.5879 9.99716C16.8407 9.4858 17.193 9.08665 17.6447 8.79972C18.0993 8.51278 18.6305 8.36932 19.2385 8.36932C19.6078 8.36932 19.9657 8.4304 20.3123 8.55256C20.6589 8.67472 20.97 8.86648 21.2456 9.12784C21.5211 9.3892 21.7385 9.72869 21.8976 10.1463C22.0566 10.5611 22.1362 11.0653 22.1362 11.6591V12.1108H16.9331V11.1562H20.8876C20.8876 10.821 20.8194 10.5241 20.6831 10.2656C20.5467 10.0043 20.3549 9.7983 20.1078 9.64773C19.8635 9.49716 19.5765 9.42188 19.247 9.42188C18.889 9.42188 18.5765 9.50994 18.3095 9.68608C18.0453 9.85937 17.8407 10.0866 17.6958 10.3679C17.5538 10.6463 17.4828 10.9489 17.4828 11.2756V12.0213C17.4828 12.4588 17.5595 12.831 17.7129 13.1378C17.8691 13.4446 18.0865 13.679 18.3649 13.8409C18.6433 14 18.9686 14.0795 19.3407 14.0795C19.5822 14.0795 19.8024 14.0455 20.0012 13.9773C20.2001 13.9062 20.372 13.8011 20.5169 13.6619C20.6618 13.5227 20.7725 13.3509 20.8493 13.1463L22.0552 13.3636C21.9586 13.7187 21.7853 14.0298 21.5353 14.2969C21.2882 14.5611 20.9771 14.767 20.6021 14.9148C20.2299 15.0597 19.8052 15.1321 19.3279 15.1321ZM24.824 11.1136V15H23.5499V8.45455H24.7729V9.51989H24.8539C25.0044 9.1733 25.2402 8.89489 25.5613 8.68466C25.8851 8.47443 26.2928 8.36932 26.7843 8.36932C27.2303 8.36932 27.6209 8.46307 27.9561 8.65057C28.2914 8.83523 28.5513 9.1108 28.736 9.47727C28.9206 9.84375 29.013 10.2969 29.013 10.8366V15H27.7388V10.9901C27.7388 10.5156 27.6152 10.1449 27.3681 9.87784C27.1209 9.60795 26.7814 9.47301 26.3496 9.47301C26.0542 9.47301 25.7914 9.53693 25.5613 9.66477C25.334 9.79261 25.1536 9.98011 25.0201 10.2273C24.8894 10.4716 24.824 10.767 24.824 11.1136ZM33.1721 15.1278C32.6436 15.1278 32.1721 14.9929 31.7573 14.723C31.3453 14.4503 31.0215 14.0625 30.7857 13.5597C30.5527 13.054 30.4363 12.4474 30.4363 11.7401C30.4363 11.0327 30.5542 10.4276 30.79 9.92472C31.0286 9.42187 31.3553 9.03693 31.7701 8.76989C32.1848 8.50284 32.655 8.36932 33.1806 8.36932C33.5868 8.36932 33.9135 8.4375 34.1607 8.57386C34.4107 8.70739 34.6039 8.86364 34.7402 9.04261C34.8794 9.22159 34.9874 9.37926 35.0641 9.51562H35.1408V6.27273H36.415V15H35.1706V13.9815H35.0641C34.9874 14.1207 34.8766 14.2798 34.7317 14.4588C34.5897 14.6378 34.3936 14.794 34.1436 14.9276C33.8936 15.0611 33.5698 15.1278 33.1721 15.1278ZM33.4533 14.0412C33.8198 14.0412 34.1294 13.9446 34.3823 13.7514C34.638 13.5554 34.8311 13.2841 34.9618 12.9375C35.0953 12.5909 35.1621 12.1875 35.1621 11.7273C35.1621 11.2727 35.0968 10.875 34.9661 10.5341C34.8354 10.1932 34.6436 9.92756 34.3908 9.73722C34.138 9.54687 33.8255 9.4517 33.4533 9.4517C33.0698 9.4517 32.7502 9.55114 32.4945 9.75C32.2388 9.94886 32.0456 10.2202 31.915 10.5639C31.7871 10.9077 31.7232 11.2955 31.7232 11.7273C31.7232 12.1648 31.7885 12.5582 31.9192 12.9077C32.0499 13.2571 32.2431 13.5341 32.4988 13.7386C32.7573 13.9403 33.0755 14.0412 33.4533 14.0412ZM38.2335 15V8.45455H39.5076V15H38.2335ZM38.877 7.4446C38.6554 7.4446 38.465 7.37074 38.3059 7.22301C38.1497 7.07244 38.0716 6.89347 38.0716 6.68608C38.0716 6.47585 38.1497 6.29687 38.3059 6.14915C38.465 5.99858 38.6554 5.9233 38.877 5.9233C39.0985 5.9233 39.2875 5.99858 39.4437 6.14915C39.6028 6.29687 39.6824 6.47585 39.6824 6.68608C39.6824 6.89347 39.6028 7.07244 39.4437 7.22301C39.2875 7.37074 39.0985 7.4446 38.877 7.4446ZM42.4959 11.1136V15H41.2218V8.45455H42.4448V9.51989H42.5257C42.6763 9.1733 42.9121 8.89489 43.2331 8.68466C43.557 8.47443 43.9647 8.36932 44.4561 8.36932C44.9022 8.36932 45.2928 8.46307 45.628 8.65057C45.9632 8.83523 46.2232 9.1108 46.4078 9.47727C46.5925 9.84375 46.6848 10.2969 46.6848 10.8366V15H45.4107V10.9901C45.4107 10.5156 45.2871 10.1449 45.04 9.87784C44.7928 9.60795 44.4533 9.47301 44.0215 9.47301C43.726 9.47301 43.4632 9.53693 43.2331 9.66477C43.0059 9.79261 42.8255 9.98011 42.6919 10.2273C42.5613 10.4716 42.4959 10.767 42.4959 11.1136ZM51.138 17.5909C50.6181 17.5909 50.1706 17.5227 49.7956 17.3864C49.4235 17.25 49.1195 17.0696 48.8837 16.8452C48.6479 16.6207 48.4718 16.375 48.3553 16.108L49.4505 15.6562C49.5272 15.7812 49.6294 15.9134 49.7573 16.0526C49.888 16.1946 50.0641 16.3153 50.2857 16.4148C50.5101 16.5142 50.7985 16.5639 51.1507 16.5639C51.6337 16.5639 52.0328 16.446 52.3482 16.2102C52.6635 15.9773 52.8212 15.6051 52.8212 15.0938V13.8068H52.7402C52.6635 13.946 52.5527 14.1009 52.4078 14.2713C52.2658 14.4418 52.0698 14.5895 51.8198 14.7145C51.5698 14.8395 51.2445 14.902 50.8439 14.902C50.3269 14.902 49.861 14.7812 49.4462 14.5398C49.0343 14.2955 48.7076 13.9361 48.4661 13.4616C48.2275 12.9844 48.1081 12.3977 48.1081 11.7017C48.1081 11.0057 48.226 10.4091 48.4618 9.91193C48.7005 9.41477 49.0272 9.03409 49.4419 8.76989C49.8567 8.50284 50.3269 8.36932 50.8525 8.36932C51.2587 8.36932 51.5868 8.4375 51.8368 8.57386C52.0868 8.70739 52.2814 8.86364 52.4206 9.04261C52.5627 9.22159 52.6721 9.37926 52.7488 9.51562H52.8425V8.45455H54.0911V15.1449C54.0911 15.7074 53.9604 16.169 53.699 16.5298C53.4377 16.8906 53.084 17.1577 52.638 17.331C52.1948 17.5043 51.6948 17.5909 51.138 17.5909ZM51.1252 13.8452C51.4917 13.8452 51.8013 13.7599 52.0542 13.5895C52.3098 13.4162 52.503 13.169 52.6337 12.848C52.7672 12.5241 52.834 12.1364 52.834 11.6847C52.834 11.2443 52.7686 10.8565 52.638 10.5213C52.5073 10.1861 52.3155 9.92472 52.0627 9.73722C51.8098 9.54687 51.4973 9.4517 51.1252 9.4517C50.7417 9.4517 50.4221 9.55114 50.1664 9.75C49.9107 9.94602 49.7175 10.2131 49.5868 10.5511C49.459 10.8892 49.3951 11.267 49.3951 11.6847C49.3951 12.1136 49.4604 12.4901 49.5911 12.8139C49.7218 13.1378 49.915 13.3906 50.1706 13.5724C50.4292 13.7543 50.7473 13.8452 51.1252 13.8452Z" fill="#C4320A"/>
</g>
</svg>
