<svg width="31" height="22" viewBox="0 0 31 22" fill="none" xmlns="http://www.w3.org/2000/svg">
<g style="mix-blend-mode:multiply">
<rect width="31" height="22" rx="11" fill="#FDF2FA"/>
<path d="M9.2342 15V6.27273H12.345C13.024 6.27273 13.5865 6.39631 14.0325 6.64347C14.4785 6.89062 14.8123 7.22869 15.0339 7.65767C15.2555 8.08381 15.3663 8.56392 15.3663 9.09801C15.3663 9.63494 15.2541 10.1179 15.0297 10.5469C14.8081 10.973 14.4728 11.3111 14.024 11.5611C13.5779 11.8082 13.0169 11.9318 12.3407 11.9318H10.2015V10.8153H12.2214C12.6504 10.8153 12.9984 10.7415 13.2654 10.5938C13.5325 10.4432 13.7285 10.2386 13.8535 9.98011C13.9785 9.72159 14.041 9.42756 14.041 9.09801C14.041 8.76847 13.9785 8.47585 13.8535 8.22017C13.7285 7.96449 13.5311 7.7642 13.2612 7.61932C12.9941 7.47443 12.6419 7.40199 12.2044 7.40199H10.551V15H9.2342ZM16.91 15V6.27273H18.2267V13.8665H22.1813V15H16.91Z" fill="#C11574"/>
</g>
</svg>
