<svg width="67" height="22" viewBox="0 0 67 22" fill="none" xmlns="http://www.w3.org/2000/svg">
<g style="mix-blend-mode:multiply">
<rect width="67" height="22" rx="11" fill="#FEF3F2"/>
<path d="M9.21662 15V6.27273H12.3274C13.0036 6.27273 13.5646 6.3892 14.0107 6.62216C14.4595 6.85511 14.7947 7.17756 15.0163 7.58949C15.2379 7.99858 15.3487 8.47159 15.3487 9.00852C15.3487 9.54261 15.2365 10.0128 15.0121 10.419C14.7905 10.8224 14.4553 11.1364 14.0064 11.3608C13.5604 11.5852 12.9993 11.6974 12.3232 11.6974H9.96662V10.5639H12.2038C12.63 10.5639 12.9766 10.5028 13.2436 10.3807C13.5135 10.2585 13.7109 10.081 13.8359 9.84801C13.9609 9.61506 14.0234 9.33523 14.0234 9.00852C14.0234 8.67898 13.9595 8.39347 13.8317 8.15199C13.7067 7.91051 13.5092 7.72585 13.2393 7.59801C12.9723 7.46733 12.6214 7.40199 12.1868 7.40199H10.5334V15H9.21662ZM13.5249 11.0625L15.6811 15H14.1811L12.0675 11.0625H13.5249ZM19.5877 15.1321C18.9428 15.1321 18.3874 14.9943 17.9215 14.7188C17.4585 14.4403 17.1005 14.0497 16.8477 13.5469C16.5977 13.0412 16.4727 12.4489 16.4727 11.7699C16.4727 11.0994 16.5977 10.5085 16.8477 9.99716C17.1005 9.4858 17.4528 9.08665 17.9045 8.79972C18.359 8.51278 18.8903 8.36932 19.4982 8.36932C19.8675 8.36932 20.2255 8.4304 20.5721 8.55256C20.9187 8.67472 21.2298 8.86648 21.5053 9.12784C21.7809 9.3892 21.9982 9.72869 22.1573 10.1463C22.3164 10.5611 22.396 11.0653 22.396 11.6591V12.1108H17.1928V11.1562H21.1474C21.1474 10.821 21.0792 10.5241 20.9428 10.2656C20.8065 10.0043 20.6147 9.7983 20.3675 9.64773C20.1232 9.49716 19.8363 9.42188 19.5067 9.42188C19.1488 9.42188 18.8363 9.50994 18.5692 9.68608C18.305 9.85937 18.1005 10.0866 17.9556 10.3679C17.8136 10.6463 17.7425 10.9489 17.7425 11.2756V12.0213C17.7425 12.4588 17.8192 12.831 17.9727 13.1378C18.1289 13.4446 18.3462 13.679 18.6246 13.8409C18.9031 14 19.2283 14.0795 19.6005 14.0795C19.842 14.0795 20.0621 14.0455 20.261 13.9773C20.4599 13.9062 20.6317 13.8011 20.7766 13.6619C20.9215 13.5227 21.0323 13.3509 21.109 13.1463L22.315 13.3636C22.2184 13.7187 22.0451 14.0298 21.7951 14.2969C21.5479 14.5611 21.2369 14.767 20.8619 14.9148C20.4897 15.0597 20.065 15.1321 19.5877 15.1321ZM23.8097 8.45455H25.0838V15.4261C25.0838 15.8636 25.0043 16.233 24.8452 16.5341C24.6889 16.8352 24.456 17.0639 24.1463 17.2202C23.8395 17.3764 23.4602 17.4545 23.0085 17.4545C22.9631 17.4545 22.9205 17.4545 22.8807 17.4545C22.8381 17.4545 22.794 17.4531 22.7486 17.4503V16.3551C22.7884 16.3551 22.8239 16.3551 22.8551 16.3551C22.8835 16.3551 22.9162 16.3551 22.9531 16.3551C23.2543 16.3551 23.4716 16.2741 23.6051 16.1122C23.7415 15.9531 23.8097 15.7216 23.8097 15.4176V8.45455ZM24.4403 7.4446C24.2188 7.4446 24.0284 7.37074 23.8693 7.22301C23.7131 7.07244 23.6349 6.89347 23.6349 6.68608C23.6349 6.47585 23.7131 6.29687 23.8693 6.14915C24.0284 5.99858 24.2188 5.9233 24.4403 5.9233C24.6619 5.9233 24.8509 5.99858 25.0071 6.14915C25.1662 6.29687 25.2457 6.47585 25.2457 6.68608C25.2457 6.89347 25.1662 7.07244 25.0071 7.22301C24.8509 7.37074 24.6619 7.4446 24.4403 7.4446ZM29.619 15.1321C28.9741 15.1321 28.4187 14.9943 27.9528 14.7188C27.4897 14.4403 27.1317 14.0497 26.8789 13.5469C26.6289 13.0412 26.5039 12.4489 26.5039 11.7699C26.5039 11.0994 26.6289 10.5085 26.8789 9.99716C27.1317 9.4858 27.484 9.08665 27.9357 8.79972C28.3903 8.51278 28.9215 8.36932 29.5295 8.36932C29.8988 8.36932 30.2567 8.4304 30.6033 8.55256C30.9499 8.67472 31.261 8.86648 31.5366 9.12784C31.8121 9.3892 32.0295 9.72869 32.1886 10.1463C32.3477 10.5611 32.4272 11.0653 32.4272 11.6591V12.1108H27.2241V11.1562H31.1786C31.1786 10.821 31.1104 10.5241 30.9741 10.2656C30.8377 10.0043 30.646 9.7983 30.3988 9.64773C30.1545 9.49716 29.8675 9.42188 29.538 9.42188C29.18 9.42188 28.8675 9.50994 28.6005 9.68608C28.3363 9.85937 28.1317 10.0866 27.9869 10.3679C27.8448 10.6463 27.7738 10.9489 27.7738 11.2756V12.0213C27.7738 12.4588 27.8505 12.831 28.0039 13.1378C28.1602 13.4446 28.3775 13.679 28.6559 13.8409C28.9343 14 29.2596 14.0795 29.6317 14.0795C29.8732 14.0795 30.0934 14.0455 30.2923 13.9773C30.4911 13.9062 30.663 13.8011 30.8079 13.6619C30.9528 13.5227 31.0636 13.3509 31.1403 13.1463L32.3462 13.3636C32.2496 13.7187 32.0763 14.0298 31.8263 14.2969C31.5792 14.5611 31.2681 14.767 30.8931 14.9148C30.521 15.0597 30.0962 15.1321 29.619 15.1321ZM36.598 15.1321C35.9645 15.1321 35.419 14.9886 34.9616 14.7017C34.5071 14.4119 34.1577 14.0128 33.9134 13.5043C33.669 12.9957 33.5469 12.4134 33.5469 11.7571C33.5469 11.0923 33.6719 10.5057 33.9219 9.99716C34.1719 9.4858 34.5241 9.08665 34.9787 8.79972C35.4332 8.51278 35.9688 8.36932 36.5852 8.36932C37.0824 8.36932 37.5256 8.46165 37.9148 8.64631C38.304 8.82812 38.6179 9.08381 38.8565 9.41335C39.098 9.7429 39.2415 10.1278 39.2869 10.5682H38.0469C37.9787 10.2614 37.8224 9.99716 37.5781 9.77557C37.3366 9.55398 37.0128 9.44318 36.6065 9.44318C36.2514 9.44318 35.9403 9.53693 35.6733 9.72443C35.4091 9.90909 35.2031 10.1733 35.0554 10.517C34.9077 10.858 34.8338 11.2614 34.8338 11.7273C34.8338 12.2045 34.9063 12.6165 35.0511 12.9631C35.196 13.3097 35.4006 13.5781 35.6648 13.7685C35.9318 13.9588 36.2457 14.054 36.6065 14.054C36.848 14.054 37.0668 14.0099 37.2628 13.9219C37.4616 13.831 37.6278 13.7017 37.7614 13.5341C37.8977 13.3665 37.9929 13.1648 38.0469 12.929H39.2869C39.2415 13.3523 39.1037 13.7301 38.8736 14.0625C38.6435 14.3949 38.3352 14.6562 37.9489 14.8466C37.5653 15.0369 37.1151 15.1321 36.598 15.1321ZM43.7049 8.45455V9.47727H40.1296V8.45455H43.7049ZM41.0884 6.88636H42.3626V13.0781C42.3626 13.3253 42.3995 13.5114 42.4734 13.6364C42.5472 13.7585 42.6424 13.8423 42.7589 13.8878C42.8782 13.9304 43.0075 13.9517 43.1467 13.9517C43.2489 13.9517 43.3384 13.9446 43.4151 13.9304C43.4918 13.9162 43.5515 13.9048 43.5941 13.8963L43.8242 14.9489C43.7504 14.9773 43.6452 15.0057 43.5089 15.0341C43.3725 15.0653 43.2021 15.0824 42.9975 15.0852C42.6623 15.0909 42.3498 15.0312 42.06 14.9062C41.7702 14.7812 41.5359 14.5881 41.3569 14.3267C41.1779 14.0653 41.0884 13.7372 41.0884 13.3423V6.88636ZM47.8651 15.1321C47.2202 15.1321 46.6648 14.9943 46.1989 14.7188C45.7358 14.4403 45.3778 14.0497 45.125 13.5469C44.875 13.0412 44.75 12.4489 44.75 11.7699C44.75 11.0994 44.875 10.5085 45.125 9.99716C45.3778 9.4858 45.7301 9.08665 46.1818 8.79972C46.6364 8.51278 47.1676 8.36932 47.7756 8.36932C48.1449 8.36932 48.5028 8.4304 48.8494 8.55256C49.196 8.67472 49.5071 8.86648 49.7827 9.12784C50.0582 9.3892 50.2756 9.72869 50.4347 10.1463C50.5938 10.5611 50.6733 11.0653 50.6733 11.6591V12.1108H45.4702V11.1562H49.4247C49.4247 10.821 49.3565 10.5241 49.2202 10.2656C49.0838 10.0043 48.892 9.7983 48.6449 9.64773C48.4006 9.49716 48.1136 9.42188 47.7841 9.42188C47.4261 9.42188 47.1136 9.50994 46.8466 9.68608C46.5824 9.85937 46.3778 10.0866 46.233 10.3679C46.0909 10.6463 46.0199 10.9489 46.0199 11.2756V12.0213C46.0199 12.4588 46.0966 12.831 46.25 13.1378C46.4062 13.4446 46.6236 13.679 46.902 13.8409C47.1804 14 47.5057 14.0795 47.8778 14.0795C48.1193 14.0795 48.3395 14.0455 48.5384 13.9773C48.7372 13.9062 48.9091 13.8011 49.054 13.6619C49.1989 13.5227 49.3097 13.3509 49.3864 13.1463L50.5923 13.3636C50.4957 13.7187 50.3224 14.0298 50.0724 14.2969C49.8253 14.5611 49.5142 14.767 49.1392 14.9148C48.767 15.0597 48.3423 15.1321 47.8651 15.1321ZM54.5373 15.1278C54.0089 15.1278 53.5373 14.9929 53.1225 14.723C52.7106 14.4503 52.3867 14.0625 52.1509 13.5597C51.918 13.054 51.8015 12.4474 51.8015 11.7401C51.8015 11.0327 51.9194 10.4276 52.1552 9.92472C52.3938 9.42187 52.7205 9.03693 53.1353 8.76989C53.5501 8.50284 54.0202 8.36932 54.5458 8.36932C54.9521 8.36932 55.2788 8.4375 55.5259 8.57386C55.7759 8.70739 55.9691 8.86364 56.1055 9.04261C56.2447 9.22159 56.3526 9.37926 56.4293 9.51562H56.506V6.27273H57.7802V15H56.5359V13.9815H56.4293C56.3526 14.1207 56.2418 14.2798 56.0969 14.4588C55.9549 14.6378 55.7589 14.794 55.5089 14.9276C55.2589 15.0611 54.935 15.1278 54.5373 15.1278ZM54.8185 14.0412C55.185 14.0412 55.4947 13.9446 55.7475 13.7514C56.0032 13.5554 56.1964 13.2841 56.3271 12.9375C56.4606 12.5909 56.5273 12.1875 56.5273 11.7273C56.5273 11.2727 56.462 10.875 56.3313 10.5341C56.2006 10.1932 56.0089 9.92756 55.756 9.73722C55.5032 9.54687 55.1907 9.4517 54.8185 9.4517C54.435 9.4517 54.1154 9.55114 53.8597 9.75C53.604 9.94886 53.4109 10.2202 53.2802 10.5639C53.1523 10.9077 53.0884 11.2955 53.0884 11.7273C53.0884 12.1648 53.1538 12.5582 53.2844 12.9077C53.4151 13.2571 53.6083 13.5341 53.864 13.7386C54.1225 13.9403 54.4407 14.0412 54.8185 14.0412Z" fill="#B42318"/>
</g>
</svg>
