<svg width="81" height="22" viewBox="0 0 81 22" fill="none" xmlns="http://www.w3.org/2000/svg">
<g style="mix-blend-mode:multiply">
<rect x="0.3" y="0.3" width="80.4" height="21.4" rx="10.7" fill="#FEF3F2"/>
<rect x="0.3" y="0.3" width="80.4" height="21.4" rx="10.7" stroke="#F04438" stroke-width="0.6"/>
<path d="M12.1577 15.1193C11.6236 15.1193 11.1435 15.017 10.7173 14.8125C10.294 14.6051 9.95597 14.321 9.70312 13.9602C9.45028 13.5994 9.31534 13.1875 9.2983 12.7244H10.5767C10.608 13.0994 10.7741 13.4077 11.0753 13.6491C11.3764 13.8906 11.7372 14.0114 12.1577 14.0114C12.4929 14.0114 12.7898 13.9347 13.0483 13.7812C13.3097 13.625 13.5142 13.4105 13.6619 13.1378C13.8125 12.8651 13.8878 12.554 13.8878 12.2045C13.8878 11.8494 13.8111 11.5327 13.6577 11.2543C13.5043 10.9759 13.2926 10.7571 13.0227 10.598C12.7557 10.4389 12.4489 10.358 12.1023 10.3551C11.8381 10.3551 11.5724 10.4006 11.3054 10.4915C11.0384 10.5824 10.8224 10.7017 10.6577 10.8494L9.4517 10.6705L9.94176 6.27273H14.7401V7.40199H11.0369L10.7599 9.84375H10.8111C10.9815 9.67898 11.2074 9.54119 11.4886 9.4304C11.7727 9.3196 12.0767 9.2642 12.4006 9.2642C12.9318 9.2642 13.4048 9.39062 13.8196 9.64347C14.2372 9.89631 14.5653 10.2415 14.804 10.679C15.0455 11.1136 15.1648 11.6136 15.1619 12.179C15.1648 12.7443 15.0369 13.2486 14.7784 13.6918C14.5227 14.1349 14.1676 14.4844 13.7131 14.7401C13.2614 14.9929 12.7429 15.1193 12.1577 15.1193ZM20.0135 15V6.27273H23.1243C23.8004 6.27273 24.3615 6.3892 24.8075 6.62216C25.2564 6.85511 25.5916 7.17756 25.8132 7.58949C26.0348 7.99858 26.1456 8.47159 26.1456 9.00852C26.1456 9.54261 26.0334 10.0128 25.8089 10.419C25.5874 10.8224 25.2521 11.1364 24.8033 11.3608C24.3572 11.5852 23.7962 11.6974 23.12 11.6974H20.7635V10.5639H23.0007C23.4268 10.5639 23.7734 10.5028 24.0405 10.3807C24.3104 10.2585 24.5078 10.081 24.6328 9.84801C24.7578 9.61506 24.8203 9.33523 24.8203 9.00852C24.8203 8.67898 24.7564 8.39347 24.6286 8.15199C24.5036 7.91051 24.3061 7.72585 24.0362 7.59801C23.7692 7.46733 23.4183 7.40199 22.9837 7.40199H21.3303V15H20.0135ZM24.3217 11.0625L26.478 15H24.978L22.8643 11.0625H24.3217ZM30.3846 15.1321C29.7397 15.1321 29.1843 14.9943 28.7184 14.7188C28.2553 14.4403 27.8974 14.0497 27.6445 13.5469C27.3945 13.0412 27.2695 12.4489 27.2695 11.7699C27.2695 11.0994 27.3945 10.5085 27.6445 9.99716C27.8974 9.4858 28.2496 9.08665 28.7013 8.79972C29.1559 8.51278 29.6871 8.36932 30.2951 8.36932C30.6644 8.36932 31.0224 8.4304 31.369 8.55256C31.7156 8.67472 32.0266 8.86648 32.3022 9.12784C32.5778 9.3892 32.7951 9.72869 32.9542 10.1463C33.1133 10.5611 33.1928 11.0653 33.1928 11.6591V12.1108H27.9897V11.1562H31.9442C31.9442 10.821 31.8761 10.5241 31.7397 10.2656C31.6033 10.0043 31.4116 9.7983 31.1644 9.64773C30.9201 9.49716 30.6332 9.42188 30.3036 9.42188C29.9457 9.42188 29.6332 9.50994 29.3661 9.68608C29.1019 9.85937 28.8974 10.0866 28.7525 10.3679C28.6104 10.6463 28.5394 10.9489 28.5394 11.2756V12.0213C28.5394 12.4588 28.6161 12.831 28.7695 13.1378C28.9258 13.4446 29.1431 13.679 29.4215 13.8409C29.6999 14 30.0252 14.0795 30.3974 14.0795C30.6388 14.0795 30.859 14.0455 31.0579 13.9773C31.2567 13.9062 31.4286 13.8011 31.5735 13.6619C31.7184 13.5227 31.8292 13.3509 31.9059 13.1463L33.1119 13.3636C33.0153 13.7187 32.842 14.0298 32.592 14.2969C32.3448 14.5611 32.0337 14.767 31.6587 14.9148C31.2866 15.0597 30.8619 15.1321 30.3846 15.1321ZM39.0256 17.4545V13.9815H38.9489C38.8722 14.1207 38.7614 14.2798 38.6165 14.4588C38.4744 14.6378 38.2784 14.794 38.0284 14.9276C37.7784 15.0611 37.4545 15.1278 37.0568 15.1278C36.5284 15.1278 36.0568 14.9929 35.642 14.723C35.2301 14.4503 34.9063 14.0625 34.6705 13.5597C34.4375 13.054 34.321 12.4474 34.321 11.7401C34.321 11.0327 34.4389 10.4276 34.6747 9.92472C34.9134 9.42187 35.2401 9.03693 35.6548 8.76989C36.0696 8.50284 36.5398 8.36932 37.0653 8.36932C37.4716 8.36932 37.7983 8.4375 38.0455 8.57386C38.2955 8.70739 38.4886 8.86364 38.625 9.04261C38.7642 9.22159 38.8722 9.37926 38.9489 9.51562H39.0554V8.45455H40.2997V17.4545H39.0256ZM37.3381 14.0412C37.7045 14.0412 38.0142 13.9446 38.267 13.7514C38.5227 13.5554 38.7159 13.2841 38.8466 12.9375C38.9801 12.5909 39.0469 12.1875 39.0469 11.7273C39.0469 11.2727 38.9815 10.875 38.8509 10.5341C38.7202 10.1932 38.5284 9.92756 38.2756 9.73722C38.0227 9.54687 37.7102 9.4517 37.3381 9.4517C36.9545 9.4517 36.6349 9.55114 36.3793 9.75C36.1236 9.94886 35.9304 10.2202 35.7997 10.5639C35.6719 10.9077 35.608 11.2955 35.608 11.7273C35.608 12.1648 35.6733 12.5582 35.804 12.9077C35.9347 13.2571 36.1278 13.5341 36.3835 13.7386C36.642 13.9403 36.9602 14.0412 37.3381 14.0412ZM46.1591 12.2855V8.45455H47.4375V15H46.1847V13.8665H46.1165C45.9659 14.2159 45.7244 14.5071 45.392 14.7401C45.0625 14.9702 44.652 15.0852 44.1605 15.0852C43.7401 15.0852 43.3679 14.9929 43.044 14.8082C42.723 14.6207 42.4702 14.3438 42.2855 13.9773C42.1037 13.6108 42.0128 13.1577 42.0128 12.6179V8.45455H43.2869V12.4645C43.2869 12.9105 43.4105 13.2656 43.6577 13.5298C43.9048 13.794 44.2259 13.9261 44.6207 13.9261C44.8594 13.9261 45.0966 13.8665 45.3324 13.7472C45.571 13.6278 45.7685 13.4474 45.9247 13.206C46.0838 12.9645 46.1619 12.6577 46.1591 12.2855ZM51.9705 15.1321C51.3256 15.1321 50.7702 14.9943 50.3043 14.7188C49.8413 14.4403 49.4833 14.0497 49.2305 13.5469C48.9805 13.0412 48.8555 12.4489 48.8555 11.7699C48.8555 11.0994 48.9805 10.5085 49.2305 9.99716C49.4833 9.4858 49.8356 9.08665 50.2873 8.79972C50.7418 8.51278 51.2731 8.36932 51.881 8.36932C52.2504 8.36932 52.6083 8.4304 52.9549 8.55256C53.3015 8.67472 53.6126 8.86648 53.8881 9.12784C54.1637 9.3892 54.381 9.72869 54.5401 10.1463C54.6992 10.5611 54.7788 11.0653 54.7788 11.6591V12.1108H49.5756V11.1562H53.5302C53.5302 10.821 53.462 10.5241 53.3256 10.2656C53.1893 10.0043 52.9975 9.7983 52.7504 9.64773C52.506 9.49716 52.2191 9.42188 51.8896 9.42188C51.5316 9.42188 51.2191 9.50994 50.9521 9.68608C50.6879 9.85937 50.4833 10.0866 50.3384 10.3679C50.1964 10.6463 50.1254 10.9489 50.1254 11.2756V12.0213C50.1254 12.4588 50.2021 12.831 50.3555 13.1378C50.5117 13.4446 50.729 13.679 51.0075 13.8409C51.2859 14 51.6112 14.0795 51.9833 14.0795C52.2248 14.0795 52.445 14.0455 52.6438 13.9773C52.8427 13.9062 53.0146 13.8011 53.1594 13.6619C53.3043 13.5227 53.4151 13.3509 53.4918 13.1463L54.6978 13.3636C54.6012 13.7187 54.4279 14.0298 54.1779 14.2969C53.9308 14.5611 53.6197 14.767 53.2447 14.9148C52.8725 15.0597 52.4478 15.1321 51.9705 15.1321ZM61.0973 10.0526L59.9425 10.2571C59.8942 10.1094 59.8175 9.96875 59.7124 9.83523C59.6101 9.7017 59.4709 9.59233 59.2947 9.5071C59.1186 9.42187 58.8984 9.37926 58.6342 9.37926C58.2734 9.37926 57.9723 9.46023 57.7308 9.62216C57.4893 9.78125 57.3686 9.98722 57.3686 10.2401C57.3686 10.4588 57.4496 10.6349 57.6115 10.7685C57.7734 10.902 58.0348 11.0114 58.3956 11.0966L59.4354 11.3352C60.0376 11.4744 60.4865 11.6889 60.782 11.9787C61.0774 12.2685 61.2251 12.6449 61.2251 13.108C61.2251 13.5 61.1115 13.8494 60.8842 14.1562C60.6598 14.4602 60.3459 14.6989 59.9425 14.8722C59.5419 15.0455 59.0774 15.1321 58.549 15.1321C57.8161 15.1321 57.218 14.9759 56.755 14.6634C56.2919 14.348 56.0078 13.9006 55.9027 13.321L57.1342 13.1335C57.2109 13.4545 57.3686 13.6974 57.6072 13.8622C57.8459 14.0241 58.157 14.1051 58.5405 14.1051C58.9581 14.1051 59.2919 14.0185 59.5419 13.8452C59.7919 13.669 59.9169 13.4545 59.9169 13.2017C59.9169 12.9972 59.8402 12.8253 59.6868 12.6861C59.5362 12.5469 59.3047 12.4418 58.9922 12.3707L57.8842 12.1278C57.2734 11.9886 56.8217 11.767 56.5291 11.4631C56.2393 11.1591 56.0945 10.7741 56.0945 10.3082C56.0945 9.92187 56.2024 9.58381 56.4183 9.29403C56.6342 9.00426 56.9325 8.77841 57.3132 8.61648C57.6939 8.4517 58.13 8.36932 58.6214 8.36932C59.3288 8.36932 59.8857 8.52273 60.2919 8.82955C60.6982 9.13352 60.9666 9.54119 61.0973 10.0526ZM65.6815 8.45455V9.47727H62.1062V8.45455H65.6815ZM63.065 6.88636H64.3391V13.0781C64.3391 13.3253 64.3761 13.5114 64.4499 13.6364C64.5238 13.7585 64.619 13.8423 64.7354 13.8878C64.8548 13.9304 64.984 13.9517 65.1232 13.9517C65.2255 13.9517 65.315 13.9446 65.3917 13.9304C65.4684 13.9162 65.5281 13.9048 65.5707 13.8963L65.8008 14.9489C65.7269 14.9773 65.6218 15.0057 65.4854 15.0341C65.3491 15.0653 65.1786 15.0824 64.9741 15.0852C64.6388 15.0909 64.3263 15.0312 64.0366 14.9062C63.7468 14.7812 63.5124 14.5881 63.3335 14.3267C63.1545 14.0653 63.065 13.7372 63.065 13.3423V6.88636ZM71.8903 10.0526L70.7354 10.2571C70.6871 10.1094 70.6104 9.96875 70.5053 9.83523C70.4031 9.7017 70.2638 9.59233 70.0877 9.5071C69.9116 9.42187 69.6914 9.37926 69.4272 9.37926C69.0664 9.37926 68.7653 9.46023 68.5238 9.62216C68.2823 9.78125 68.1616 9.98722 68.1616 10.2401C68.1616 10.4588 68.2425 10.6349 68.4045 10.7685C68.5664 10.902 68.8278 11.0114 69.1886 11.0966L70.2283 11.3352C70.8306 11.4744 71.2795 11.6889 71.5749 11.9787C71.8704 12.2685 72.0181 12.6449 72.0181 13.108C72.0181 13.5 71.9045 13.8494 71.6772 14.1562C71.4528 14.4602 71.1388 14.6989 70.7354 14.8722C70.3349 15.0455 69.8704 15.1321 69.342 15.1321C68.609 15.1321 68.011 14.9759 67.5479 14.6634C67.0849 14.348 66.8008 13.9006 66.6957 13.321L67.9272 13.1335C68.0039 13.4545 68.1616 13.6974 68.4002 13.8622C68.6388 14.0241 68.9499 14.1051 69.3335 14.1051C69.7511 14.1051 70.0849 14.0185 70.3349 13.8452C70.5849 13.669 70.7099 13.4545 70.7099 13.2017C70.7099 12.9972 70.6332 12.8253 70.4798 12.6861C70.3292 12.5469 70.0977 12.4418 69.7852 12.3707L68.6772 12.1278C68.0664 11.9886 67.6147 11.767 67.3221 11.4631C67.0323 11.1591 66.8874 10.7741 66.8874 10.3082C66.8874 9.92187 66.9954 9.58381 67.2113 9.29403C67.4272 9.00426 67.7255 8.77841 68.1062 8.61648C68.4869 8.4517 68.9229 8.36932 69.4144 8.36932C70.1218 8.36932 70.6786 8.52273 71.0849 8.82955C71.4911 9.13352 71.7596 9.54119 71.8903 10.0526Z" fill="#F04438"/>
</g>
</svg>
